<svg xmlns="http://www.w3.org/2000/svg" viewBox="0 0 64 64" role="img" aria-label="BrightPath">
  <defs>
    <linearGradient id="bg" x1="0%" y1="100%" x2="100%" y2="0%">
      <stop offset="0%" stop-color="#0f3f2f"/>
      <stop offset="100%" stop-color="#2f8a64"/>
    </linearGradient>
  </defs>
  <rect width="64" height="64" rx="12" fill="url(#bg)"/>
  <path d="M18 46V18h12c6.6 0 11 3.6 11 9 0 3.4-1.8 6-4.8 7.5 2.5 1.4 4 3.8 4 6.9 0 5.5-4.2 8.6-11.2 8.6H18zm6-16.6h6.2c2.4 0 3.8-1.2 3.8-3.5 0-2.3-1.4-3.5-3.8-3.5H24v7zm0 11h6.5c2.7 0 4.3-1.2 4.3-3.6 0-2.3-1.6-3.6-4.3-3.6H24v7.2z" fill="#f5e7c7"/>
</svg>
